HIERARCHY
ROOT hip
{
  OFFSET 0 90.174 2.4664
  CHANNELS 6 Xposition Yposition Zposition Zrotation Xrotation Yrotation
  JOINT abdomen
  {
    OFFSET 0 -1.186 -1.5018
    CHANNELS 6 Xposition Yposition Zposition Zrotation Xrotation Yrotation
    JOINT abdomen2
    {
      OFFSET 0 9.964 0.2134
      CHANNELS 6 Xposition Yposition Zposition Zrotation Xrotation Yrotation
      JOINT chest
      {
        OFFSET 0 13.134 -3.2573
        CHANNELS 6 Xposition Yposition Zposition Zrotation Xrotation Yrotation
        JOINT neck
        {
          OFFSET 0 20.686 -1.6905
          CHANNELS 6 Xposition Yposition Zposition Zrotation Xrotation Yrotation
          JOINT head
          {
            OFFSET 0 7.238 -0.1237
            CHANNELS 6 Xposition Yposition Zposition Zrotation Xrotation Yrotation
            End Site
            {
              OFFSET 0 0 0
            }
          }
        }
        JOINT lCollar
        {
          OFFSET 1.7069 20.075 5.0056
          CHANNELS 6 Xposition Yposition Zposition Zrotation Xrotation Yrotation
          JOINT lShldr
          {
            OFFSET 13.6458 -0.047 -4.849
            CHANNELS 6 Xposition Yposition Zposition Zrotation Xrotation Yrotation
            JOINT lForeArm
            {
              OFFSET 28.3255 -0.9759 2.2888
              CHANNELS 6 Xposition Yposition Zposition Zrotation Xrotation Yrotation
              JOINT lHand
              {
                OFFSET 22.1583 -0.53 10.8316
                CHANNELS 6 Xposition Yposition Zposition Zrotation Xrotation Yrotation
                JOINT lThumb1
                {
                  OFFSET 0.786 0.112 2.5817
                  CHANNELS 6 Xposition Yposition Zposition Zrotation Xrotation Yrotation
                  JOINT lThumb2
                  {
                    OFFSET 0.3601 -0.878 4.2331
                    CHANNELS 6 Xposition Yposition Zposition Zrotation Xrotation Yrotation
                    JOINT lThumb2_End
                    {
                      OFFSET 1.8127 -1.216 2.2227
                      CHANNELS 6 Xposition Yposition Zposition Zrotation Xrotation Yrotation
                      End Site
                      {
                        OFFSET 0.0181 -0.0122 0.0222
                      }
                    }
                  }
                }
                JOINT lCarpal1
                {
                  OFFSET 0.9571 1.114 1.7695
                  CHANNELS 6 Xposition Yposition Zposition Zrotation Xrotation Yrotation
                  JOINT lIndex1
                  {
                    OFFSET 4.1246 0.487 4.1451
                    CHANNELS 6 Xposition Yposition Zposition Zrotation Xrotation Yrotation
                    JOINT lIndex2
                    {
                      OFFSET 3.4052 -1.454 2.7682
                      CHANNELS 6 Xposition Yposition Zposition Zrotation Xrotation Yrotation
                      JOINT lIndex2_End
                      {
                        OFFSET 1.4531 -1.795 1.2713
                        CHANNELS 6 Xposition Yposition Zposition Zrotation Xrotation Yrotation
                        End Site
                        {
                          OFFSET 0.0145 -0.0179 0.0127
                        }
                      }
                    }
                  }
                  JOINT lMid1
                  {
                    OFFSET 5.6954 0.21 2.1184
                    CHANNELS 6 Xposition Yposition Zposition Zrotation Xrotation Yrotation
                    JOINT lMid2
                    {
                      OFFSET 3.9766 -1.54 2.3863
                      CHANNELS 6 Xposition Yposition Zposition Zrotation Xrotation Yrotation
                      JOINT lMid2_End
                      {
                        OFFSET 1.4042 -1.926 1.125
                        CHANNELS 6 Xposition Yposition Zposition Zrotation Xrotation Yrotation
                        End Site
                        {
                          OFFSET 0.014 -0.0193 0.0113
                        }
                      }
                    }
                  }
                }
                JOINT lCarpal2
                {
                  OFFSET 2.0956 0.66 -0.3894
                  CHANNELS 6 Xposition Yposition Zposition Zrotation Xrotation Yrotation
                  JOINT lRing1
                  {
                    OFFSET 5.0395 -0.09 2.4971
                    CHANNELS 6 Xposition Yposition Zposition Zrotation Xrotation Yrotation
                    JOINT lRing2
                    {
                      OFFSET 3.7921 -1.552 1.4806
                      CHANNELS 6 Xposition Yposition Zposition Zrotation Xrotation Yrotation
                      JOINT lRing2_End
                      {
                        OFFSET 1.4655 -1.808 0.9609
                        CHANNELS 6 Xposition Yposition Zposition Zrotation Xrotation Yrotation
                        End Site
                        {
                          OFFSET 0.0147 -0.0181 0.0096
                        }
                      }
                    }
                  }
                  JOINT lPinky1
                  {
                    OFFSET 4.9141 -1.269 0.3591
                    CHANNELS 6 Xposition Yposition Zposition Zrotation Xrotation Yrotation
                    JOINT lPinky2
                    {
                      OFFSET 3.1477 -1.685 0.8462
                      CHANNELS 6 Xposition Yposition Zposition Zrotation Xrotation Yrotation
                      JOINT lPinky2_End
                      {
                        OFFSET 0.8055 -1.585 0.7955
                        CHANNELS 6 Xposition Yposition Zposition Zrotation Xrotation Yrotation
                        End Site
                        {
                          OFFSET 0.0081 -0.0158 0.008
                        }
                      }
                    }
                  }
                }
              }
            }
          }
        }
        JOINT rCollar
        {
          OFFSET -1.7069 20.075 5.0056
          CHANNELS 6 Xposition Yposition Zposition Zrotation Xrotation Yrotation
          JOINT rShldr
          {
            OFFSET -13.6458 -0.047 -4.849
            CHANNELS 6 Xposition Yposition Zposition Zrotation Xrotation Yrotation
            JOINT rForeArm
            {
              OFFSET -28.3255 -0.9759 2.2888
              CHANNELS 6 Xposition Yposition Zposition Zrotation Xrotation Yrotation
              JOINT rHand
              {
                OFFSET -22.1583 -0.53 10.8316
                CHANNELS 6 Xposition Yposition Zposition Zrotation Xrotation Yrotation
                JOINT rThumb1
                {
                  OFFSET -0.786 0.112 2.5817
                  CHANNELS 6 Xposition Yposition Zposition Zrotation Xrotation Yrotation
                  JOINT rThumb2
                  {
                    OFFSET -0.3601 -0.878 4.2331
                    CHANNELS 6 Xposition Yposition Zposition Zrotation Xrotation Yrotation
                    JOINT rThumb2_End
                    {
                      OFFSET -1.8127 -1.216 2.2227
                      CHANNELS 6 Xposition Yposition Zposition Zrotation Xrotation Yrotation
                      End Site
                      {
                        OFFSET -0.0181 -0.0122 0.0222
                      }
                    }
                  }
                }
                JOINT rCarpal1
                {
                  OFFSET -0.9571 1.114 1.7695
                  CHANNELS 6 Xposition Yposition Zposition Zrotation Xrotation Yrotation
                  JOINT rIndex1
                  {
                    OFFSET -4.1246 0.487 4.1451
                    CHANNELS 6 Xposition Yposition Zposition Zrotation Xrotation Yrotation
                    JOINT rIndex2
                    {
                      OFFSET -3.4052 -1.454 2.7682
                      CHANNELS 6 Xposition Yposition Zposition Zrotation Xrotation Yrotation
                      JOINT rIndex2_End
                      {
                        OFFSET -1.4531 -1.795 1.2713
                        CHANNELS 6 Xposition Yposition Zposition Zrotation Xrotation Yrotation
                        End Site
                        {
                          OFFSET -0.0145 -0.018 0.0127
                        }
                      }
                    }
                  }
                  JOINT rMid1
                  {
                    OFFSET -5.6954 0.21 2.1184
                    CHANNELS 6 Xposition Yposition Zposition Zrotation Xrotation Yrotation
                    JOINT rMid2
                    {
                      OFFSET -3.9766 -1.54 2.3863
                      CHANNELS 6 Xposition Yposition Zposition Zrotation Xrotation Yrotation
                      JOINT rMid2_End
                      {
                        OFFSET -1.4042 -1.926 1.125
                        CHANNELS 6 Xposition Yposition Zposition Zrotation Xrotation Yrotation
                        End Site
                        {
                          OFFSET -0.014 -0.0193 0.0113
                        }
                      }
                    }
                  }
                }
                JOINT rCarpal2
                {
                  OFFSET -2.0956 0.66 -0.3894
                  CHANNELS 6 Xposition Yposition Zposition Zrotation Xrotation Yrotation
                  JOINT rRing1
                  {
                    OFFSET -5.0395 -0.09 2.4971
                    CHANNELS 6 Xposition Yposition Zposition Zrotation Xrotation Yrotation
                    JOINT rRing2
                    {
                      OFFSET -3.7921 -1.552 1.4806
                      CHANNELS 6 Xposition Yposition Zposition Zrotation Xrotation Yrotation
                      JOINT rRing2_End
                      {
                        OFFSET -1.4655 -1.808 0.9609
                        CHANNELS 6 Xposition Yposition Zposition Zrotation Xrotation Yrotation
                        End Site
                        {
                          OFFSET -0.0147 -0.0181 0.0096
                        }
                      }
                    }
                  }
                  JOINT rPinky1
                  {
                    OFFSET -4.9141 -1.269 0.3592
                    CHANNELS 6 Xposition Yposition Zposition Zrotation Xrotation Yrotation
                    JOINT rPinky2
                    {
                      OFFSET -3.1477 -1.685 0.8462
                      CHANNELS 6 Xposition Yposition Zposition Zrotation Xrotation Yrotation
                      JOINT rPinky2_End
                      {
                        OFFSET -0.8055 -1.585 0.7955
                        CHANNELS 6 Xposition Yposition Zposition Zrotation Xrotation Yrotation
                        End Site
                        {
                          OFFSET -0.0081 -0.0158 0.008
                        }
                      }
                    }
                  }
                }
              }
            }
          }
        }
      }
    }
  }
  JOINT lThigh
  {
    OFFSET 8.367 -8.2066 0.5982
    CHANNELS 6 Xposition Yposition Zposition Zrotation Xrotation Yrotation
    JOINT lShin
    {
      OFFSET 2.1923 -43.463 -0.4932
      CHANNELS 6 Xposition Yposition Zposition Zrotation Xrotation Yrotation
      JOINT lFoot
      {
        OFFSET 0.7333 -45.8593 -2.6451
        CHANNELS 6 Xposition Yposition Zposition Zrotation Xrotation Yrotation
        End Site
        {
          OFFSET 2.6618 -4.2699 12.3931
        }
      }
    }
  }
  JOINT rThigh
  {
    OFFSET -8.367 -8.2066 0.5982
    CHANNELS 6 Xposition Yposition Zposition Zrotation Xrotation Yrotation
    JOINT rShin
    {
      OFFSET -2.1923 -43.463 -0.4931
      CHANNELS 6 Xposition Yposition Zposition Zrotation Xrotation Yrotation
      JOINT rFoot
      {
        OFFSET -0.7333 -45.8593 -2.6451
        CHANNELS 6 Xposition Yposition Zposition Zrotation Xrotation Yrotation
        End Site
        {
          OFFSET -2.6618 -4.2699 12.3931
        }
      }
    }
  }
}
MOTION
Frames:	4
Frame Time:	0.0333333
-2.72086 87.4521 -3.54763 -0.00580438 -7.73277 -170.058 -8.88178e-016 -1.186 -1.5018 0.0346502 11.0512 -0.191039 0 9.964 0.2134 0.110881 22.1021 -0.400567 -4.44089e-016 13.134 -3.2573 0.110878 22.1022 -0.400563 -1.77636e-015 20.686 -1.6905 -4.30749 -11.3143 -7.76239 0 7.238 -0.1237 -4.18489 -4.98914 -0.702461 1.7069 20.075 5.0056 -41.7427 -44.4285 -25.1502 13.6458 -0.047 -4.849 -21.1448 4.88156 25.4236 28.3255 -0.9759 2.2888 -24.6967 -15.6447 15.0586 22.1583 -0.53 10.8316 -16.6615 0.697676 -34.4994 0.786 0.112 2.5817 -6.31081e-007 1.92278e-006 -2.49724e-006 0.3601 -0.878 4.2331 -1.7849e-006 -5.74462e-007 -4.42002e-006 1.8127 -1.216 2.2227 -1.59028e-015 -6.36111e-015 -3.18055e-015 0.9571 1.114 1.7695 -8.82781e-032 -3.18055e-015 -1.59028e-015 4.1246 0.487 4.1451 -6.31081e-007 1.92278e-006 -2.49724e-006 3.4052 -1.454 2.7682 -1.7849e-006 -5.74462e-007 -4.42002e-006 1.4531 -1.795 1.2713 1.59028e-015 0 -1.59028e-015 5.6954 0.21 2.1184 -6.31081e-007 1.92278e-006 -2.49724e-006 3.9766 -1.54 2.3863 -1.7849e-006 -5.74462e-007 -4.42002e-006 1.4042 -1.926 1.125 1.59028e-015 0 -1.59028e-015 2.0956 0.66 -0.3894 -8.82781e-032 -3.18055e-015 -1.59028e-015 5.0395 -0.09 2.4971 -6.31081e-007 1.92278e-006 -2.49724e-006 3.7921 -1.552 1.4806 -1.7849e-006 -5.74462e-007 -4.42002e-006 1.4655 -1.808 0.9609 1.59028e-015 0 -1.59028e-015 4.9141 -1.269 0.3591 -6.31081e-007 1.92278e-006 -2.49724e-006 3.1477 -1.685 0.8462 -1.7849e-006 -5.74462e-007 -4.42002e-006 0.8055 -1.585 0.7955 1.59028e-015 0 -1.59028e-015 -1.7069 20.075 5.0056 8.85589 -52.448 11.5866 -13.6458 -0.047 -4.849 14.0179 -0.846147 -33.7596 -28.3255 -0.9759 2.2888 78.4795 0.114698 -5.07777 -22.1583 -0.53 10.8316 5.22965 -1.33992 29.8699 -0.786 0.112 2.5817 1.58437e-007 6.11768e-007 5.67162e-007 -0.3601 -0.878 4.2331 4.96022e-007 3.79587e-007 4.675e-007 -1.8127 -1.216 2.2227 1.58437e-007 6.11768e-007 5.67162e-007 -0.9571 1.114 1.7695 1.19271e-015 -3.18055e-015 1.59028e-015 -4.1246 0.487 4.1451 1.58437e-007 6.11768e-007 5.67162e-007 -3.4052 -1.454 2.7682 4.96022e-007 3.79587e-007 4.675e-007 -1.4531 -1.795 1.2713 1.58437e-007 6.11768e-007 5.67162e-007 -5.6954 0.21 2.1184 1.58437e-007 6.11768e-007 5.67162e-007 -3.9766 -1.54 2.3863 4.96022e-007 3.79587e-007 4.675e-007 -1.4042 -1.926 1.125 1.58437e-007 6.11768e-007 5.67162e-007 -2.0956 0.66 -0.3894 1.19271e-015 -3.18055e-015 1.59028e-015 -5.0395 -0.09 2.4971 1.58437e-007 6.11768e-007 5.67162e-007 -3.7921 -1.552 1.4806 4.96022e-007 3.79587e-007 4.675e-007 -1.4655 -1.808 0.9609 1.58437e-007 6.11768e-007 5.67162e-007 -4.9141 -1.269 0.3592 1.58437e-007 6.11768e-007 5.67162e-007 -3.1477 -1.685 0.8462 4.96022e-007 3.79587e-007 4.675e-007 -0.8055 -1.585 0.7955 1.58437e-007 6.11768e-007 5.67162e-007 8.367 -8.2066 0.5982 38.2949 21.6352 77.1351 2.1923 -43.463 -0.4932 76.8326 47.5087 -100.167 0.7333 -45.8593 -2.6451 1.1461 37.8463 29.4637 -8.367 -8.2066 0.5982 -121.161 -33.1575 -132.607 -2.1923 -43.463 -0.4931 -149.932 57.3383 150.626 -0.7333 -45.8593 -2.6451 -3.2832 -19.4569 2.65529 
-2.71514 87.5303 -3.5837 -0.00597151 -8.26182 -170.056 -8.88178e-016 -1.186 -1.5018 0.0349537 10.9791 -0.190804 8.88178e-016 9.964 0.2134 0.111116 21.958 -0.399894 0 13.134 -3.2573 0.111115 21.958 -0.399891 0 20.686 -1.6905 -4.2886 -11.7541 -7.76498 1.77636e-015 7.238 -0.1237 -4.1629 -5.55762 -0.7282 1.7069 20.075 5.0056 -42.3146 -44.3279 -25.0985 13.6458 -0.047 -4.849 -20.9602 4.83938 24.987 28.3255 -0.9759 2.2888 -23.9641 -15.7574 15.0612 22.1583 -0.53 10.8316 -16.9838 0.63883 -34.2835 0.786 0.112 2.5817 -6.33652e-007 1.91421e-006 -2.50048e-006 0.3601 -0.878 4.2331 -7.95139e-015 6.36111e-015 1.59028e-015 1.8127 -1.216 2.2227 -6.33652e-007 1.91421e-006 -2.50048e-006 0.9571 1.114 1.7695 -4.77083e-015 -3.18055e-015 -1.59028e-015 4.1246 0.487 4.1451 -6.33652e-007 1.91421e-006 -2.50048e-006 3.4052 -1.454 2.7682 -3.18055e-015 0 1.59028e-015 1.4531 -1.795 1.2713 -6.33652e-007 1.91421e-006 -2.50048e-006 5.6954 0.21 2.1184 -6.33652e-007 1.91421e-006 -2.50048e-006 3.9766 -1.54 2.3863 -3.18055e-015 0 1.59028e-015 1.4042 -1.926 1.125 -6.33652e-007 1.91421e-006 -2.50048e-006 2.0956 0.66 -0.3894 -4.77083e-015 -3.18055e-015 -1.59028e-015 5.0395 -0.09 2.4971 -6.33652e-007 1.91421e-006 -2.50048e-006 3.7921 -1.552 1.4806 -3.18055e-015 0 1.59028e-015 1.4655 -1.808 0.9609 -6.33652e-007 1.91421e-006 -2.50048e-006 4.9141 -1.269 0.3591 -6.33652e-007 1.91421e-006 -2.50048e-006 3.1477 -1.685 0.8462 -3.18055e-015 0 1.59028e-015 0.8055 -1.585 0.7955 -6.33652e-007 1.91421e-006 -2.50048e-006 -1.7069 20.075 5.0056 8.97817 -52.3256 11.5497 -13.6458 -0.047 -4.849 14.0179 -0.846152 -33.7596 -28.3255 -0.9759 2.2888 78.3733 0.0775875 -5.07402 -22.1583 -0.53 10.8316 5.29317 -1.10555 30.1643 -0.786 0.112 2.5817 4.41391e-032 -3.18055e-015 7.95139e-016 -0.3601 -0.878 4.2331 1.58333e-007 6.11887e-007 5.67073e-007 -1.8127 -1.216 2.2227 7.95139e-016 0 1.59028e-015 -0.9571 1.114 1.7695 -0 0 7.95139e-016 -4.1246 0.487 4.1451 3.18055e-015 -9.54166e-015 7.95139e-015 -3.4052 -1.454 2.7682 1.58333e-007 6.11887e-007 5.67073e-007 -1.4531 -1.795 1.2713 -7.95139e-016 3.18055e-015 -0 -5.6954 0.21 2.1184 3.18055e-015 -9.54166e-015 7.95139e-015 -3.9766 -1.54 2.3863 1.58333e-007 6.11887e-007 5.67073e-007 -1.4042 -1.926 1.125 -7.95139e-016 3.18055e-015 -0 -2.0956 0.66 -0.3894 -0 0 7.95139e-016 -5.0395 -0.09 2.4971 3.18055e-015 -9.54166e-015 7.95139e-015 -3.7921 -1.552 1.4806 1.58333e-007 6.11887e-007 5.67073e-007 -1.4655 -1.808 0.9609 -7.95139e-016 3.18055e-015 -0 -4.9141 -1.269 0.3592 3.18055e-015 -9.54166e-015 7.95139e-015 -3.1477 -1.685 0.8462 1.58333e-007 6.11887e-007 5.67073e-007 -0.8055 -1.585 0.7955 -7.95139e-016 3.18055e-015 -0 8.367 -8.2066 0.5982 38.0904 21.1886 77.5571 2.1923 -43.463 -0.4932 76.8354 47.5091 -100.171 0.7333 -45.8593 -2.6451 1.22354 37.9342 29.4588 -8.367 -8.2066 0.5982 -121.552 -33.1754 -133.059 -2.1923 -43.463 -0.4931 -149.919 57.3468 150.603 -0.7333 -45.8593 -2.6451 -3.14612 -19.467 2.47534 
-2.70929 87.6083 -3.61952 -0.00611406 -8.79081 -170.054 8.88178e-016 -1.186 -1.5018 0.0352448 10.907 -0.190528 8.88178e-016 9.964 0.2134 0.11135 21.8139 -0.399212 8.88178e-016 13.134 -3.2573 0.111351 21.8139 -0.399218 1.33227e-015 20.686 -1.6905 -4.26967 -12.1946 -7.76744 0 7.238 -0.1237 -4.14115 -6.12612 -0.753746 1.7069 20.075 5.0056 -42.8855 -44.2278 -25.0454 13.6458 -0.047 -4.849 -20.776 4.79581 24.5506 28.3255 -0.9759 2.2888 -23.2313 -15.87 15.0653 22.1583 -0.53 10.8316 -17.3059 0.578795 -34.068 0.786 0.112 2.5817 1.59028e-015 2.22639e-014 -3.18055e-015 0.3601 -0.878 4.2331 0 2.22639e-014 -0 1.8127 -1.216 2.2227 -4.77083e-015 1.59028e-014 -3.18055e-015 0.9571 1.114 1.7695 3.18055e-015 3.18055e-015 -1.59028e-015 4.1246 0.487 4.1451 3.18055e-015 9.54166e-015 1.59028e-015 3.4052 -1.454 2.7682 -3.18055e-015 2.22639e-014 -4.77083e-015 1.4531 -1.795 1.2713 -6.36111e-015 2.22639e-014 -4.77083e-015 5.6954 0.21 2.1184 3.18055e-015 9.54166e-015 1.59028e-015 3.9766 -1.54 2.3863 -3.18055e-015 2.22639e-014 -4.77083e-015 1.4042 -1.926 1.125 -6.36111e-015 2.22639e-014 -4.77083e-015 2.0956 0.66 -0.3894 3.18055e-015 3.18055e-015 -1.59028e-015 5.0395 -0.09 2.4971 3.18055e-015 9.54166e-015 1.59028e-015 3.7921 -1.552 1.4806 -3.18055e-015 2.22639e-014 -4.77083e-015 1.4655 -1.808 0.9609 -6.36111e-015 2.22639e-014 -4.77083e-015 4.9141 -1.269 0.3591 3.18055e-015 9.54166e-015 1.59028e-015 3.1477 -1.685 0.8462 -3.18055e-015 2.22639e-014 -4.77083e-015 0.8055 -1.585 0.7955 -6.36111e-015 2.22639e-014 -4.77083e-015 -1.7069 20.075 5.0056 9.10024 -52.2032 11.5125 -13.6458 -0.047 -4.849 14.0179 -0.846148 -33.7596 -28.3255 -0.9759 2.2888 78.2672 0.0404936 -5.07035 -22.1583 -0.53 10.8316 5.35546 -0.870893 30.4585 -0.786 0.112 2.5817 1.58229e-007 6.12004e-007 5.66986e-007 -0.3601 -0.878 4.2331 -7.95139e-016 3.18055e-015 -7.95139e-016 -1.8127 -1.216 2.2227 -1.58229e-007 -6.12004e-007 -5.66986e-007 -0.9571 1.114 1.7695 -1.59028e-015 0 -2.38542e-015 -4.1246 0.487 4.1451 1.58229e-007 6.12004e-007 5.66986e-007 -3.4052 -1.454 2.7682 -1.19271e-015 0 -7.95139e-016 -1.4531 -1.795 1.2713 -1.58229e-007 -6.12004e-007 -5.66986e-007 -5.6954 0.21 2.1184 1.58229e-007 6.12004e-007 5.66986e-007 -3.9766 -1.54 2.3863 -1.19271e-015 0 -7.95139e-016 -1.4042 -1.926 1.125 -1.58229e-007 -6.12004e-007 -5.66986e-007 -2.0956 0.66 -0.3894 -1.59028e-015 0 -2.38542e-015 -5.0395 -0.09 2.4971 1.58229e-007 6.12004e-007 5.66986e-007 -3.7921 -1.552 1.4806 -1.19271e-015 0 -7.95139e-016 -1.4655 -1.808 0.9609 -1.58229e-007 -6.12004e-007 -5.66986e-007 -4.9141 -1.269 0.3592 1.58229e-007 6.12004e-007 5.66986e-007 -3.1477 -1.685 0.8462 -1.19271e-015 0 -7.95139e-016 -0.8055 -1.585 0.7955 -1.58229e-007 -6.12004e-007 -5.66986e-007 8.367 -8.2066 0.5982 37.8901 20.7407 77.976 2.1923 -43.463 -0.4932 76.8383 47.5095 -100.175 0.7333 -45.8593 -2.6451 1.30095 38.0219 29.4538 -8.367 -8.2066 0.5982 -121.943 -33.1909 -133.513 -2.1923 -43.463 -0.4931 -149.906 57.3552 150.58 -0.7333 -45.8593 -2.6451 -3.00903 -19.4775 2.29538 
-2.70331 87.686 -3.6551 -0.00623903 -9.31969 -170.052 1.77636e-015 -1.186 -1.5018 0.0355426 10.835 -0.190267 0 9.964 0.2134 0.111586 21.6697 -0.398536 -8.88178e-016 13.134 -3.2573 0.111586 21.6697 -0.39854 0 20.686 -1.6905 -4.25083 -12.6346 -7.76978 -1.77636e-015 7.238 -0.1237 -4.11963 -6.69464 -0.779099 1.7069 20.075 5.0056 -43.4554 -44.128 -24.991 13.6458 -0.047 -4.849 -20.5921 4.75084 24.1144 28.3255 -0.9759 2.2888 -22.4983 -15.9825 15.0709 22.1583 -0.53 10.8316 -17.6277 0.517544 -33.8529 0.786 0.112 2.5817 -3.18055e-015 -2.54444e-014 -0 0.3601 -0.878 4.2331 -6.36111e-015 -2.8625e-014 3.18055e-015 1.8127 -1.216 2.2227 -6.36111e-015 -3.49861e-014 1.59028e-015 0.9571 1.114 1.7695 0 0 -3.18055e-015 4.1246 0.487 4.1451 -3.18055e-015 -3.49861e-014 3.18055e-015 3.4052 -1.454 2.7682 -1.59028e-015 -3.49861e-014 -0 1.4531 -1.795 1.2713 -6.36111e-015 -2.54444e-014 1.59028e-015 5.6954 0.21 2.1184 -3.18055e-015 -3.49861e-014 3.18055e-015 3.9766 -1.54 2.3863 -1.59028e-015 -3.49861e-014 -0 1.4042 -1.926 1.125 -6.36111e-015 -2.54444e-014 1.59028e-015 2.0956 0.66 -0.3894 0 0 -3.18055e-015 5.0395 -0.09 2.4971 -3.18055e-015 -3.49861e-014 3.18055e-015 3.7921 -1.552 1.4806 -1.59028e-015 -3.49861e-014 -0 1.4655 -1.808 0.9609 -6.36111e-015 -2.54444e-014 1.59028e-015 4.9141 -1.269 0.3591 -3.18055e-015 -3.49861e-014 3.18055e-015 3.1477 -1.685 0.8462 -1.59028e-015 -3.49861e-014 -0 0.8055 -1.585 0.7955 -6.36111e-015 -2.54444e-014 1.59028e-015 -1.7069 20.075 5.0056 9.22209 -52.0809 11.4749 -13.6458 -0.047 -4.849 14.0179 -0.846161 -33.7596 -28.3255 -0.9759 2.2888 78.161 0.00337245 -5.06676 -22.1583 -0.53 10.8316 5.41651 -0.635943 30.7523 -0.786 0.112 2.5817 -7.95139e-016 0 -0 -0.3601 -0.878 4.2331 1.58123e-007 6.12118e-007 5.66901e-007 -1.8127 -1.216 2.2227 -1.58123e-007 -6.12118e-007 -5.66901e-007 -0.9571 1.114 1.7695 -1.19271e-015 0 -0 -4.1246 0.487 4.1451 1.19271e-015 0 6.36111e-015 -3.4052 -1.454 2.7682 1.58123e-007 6.12118e-007 5.66901e-007 -1.4531 -1.795 1.2713 -1.58123e-007 -6.12118e-007 -5.66901e-007 -5.6954 0.21 2.1184 1.19271e-015 0 6.36111e-015 -3.9766 -1.54 2.3863 1.58123e-007 6.12118e-007 5.66901e-007 -1.4042 -1.926 1.125 -1.58123e-007 -6.12118e-007 -5.66901e-007 -2.0956 0.66 -0.3894 -1.19271e-015 0 -0 -5.0395 -0.09 2.4971 1.19271e-015 0 6.36111e-015 -3.7921 -1.552 1.4806 1.58123e-007 6.12118e-007 5.66901e-007 -1.4655 -1.808 0.9609 -1.58123e-007 -6.12118e-007 -5.66901e-007 -4.9141 -1.269 0.3592 1.19271e-015 0 6.36111e-015 -3.1477 -1.685 0.8462 1.58123e-007 6.12118e-007 5.66901e-007 -0.8055 -1.585 0.7955 -1.58123e-007 -6.12118e-007 -5.66901e-007 8.367 -8.2066 0.5982 37.6941 20.2914 78.392 2.1923 -43.463 -0.4932 76.8412 47.5099 -100.178 0.7333 -45.8593 -2.6451 1.37847 38.1099 29.4486 -8.367 -8.2066 0.5982 -122.335 -33.204 -133.966 -2.1923 -43.463 -0.4931 -149.893 57.3637 150.557 -0.7333 -45.8593 -2.6451 -2.87196 -19.4883 2.11546 
